<svg width="14" height="14" viewBox="0 0 14 14" fill="none" xmlns="http://www.w3.org/2000/svg">
<g clip-path="url(#clip0)">
<path d="M13.9732 2.66514C13.4569 2.89206 12.9057 3.04664 12.3252 3.11723C12.9167 2.76081 13.3717 2.19906 13.587 1.52881C13.0322 1.85256 12.4174 2.08823 11.7629 2.21948C11.2403 1.66006 10.4953 1.31006 9.66817 1.31006C8.08325 1.31006 6.79817 2.59514 6.79817 4.17831C6.79817 4.40581 6.82442 4.62456 6.87225 4.83397C4.48642 4.72139 2.37183 3.57573 0.956667 1.84381C0.707583 2.26498 0.568167 2.75439 0.568167 3.28756C0.568167 4.28506 1.07567 5.16181 1.8445 5.67689C1.37375 5.66173 0.931 5.53223 0.544833 5.31756V5.35314C0.544833 6.74439 1.53242 7.90464 2.84667 8.16889C2.60575 8.23364 2.35142 8.26864 2.09067 8.26864C1.9075 8.26864 1.73192 8.25114 1.55633 8.21847C1.92442 9.35772 2.98258 10.1884 4.242 10.2117C3.262 10.9811 2.02008 11.4396 0.6825 11.4396C0.455 11.4396 0.228083 11.4262 0 11.4006C1.27692 12.2137 2.78133 12.6891 4.40825 12.6891C9.68975 12.6891 12.5743 8.31647 12.5743 4.53064C12.5743 4.40873 12.5743 4.28564 12.5656 4.16314C13.1262 3.76122 13.6156 3.25314 14.0006 2.67681L13.9732 2.66514Z" fill="white"/>
</g>
<defs>
<clipPath id="clip0">
<rect width="14" height="14" fill="white"/>
</clipPath>
</defs>
</svg>
