<?xml version="1.0" encoding="utf-8"?>
<!-- Generator: Adobe Illustrator 25.4.1, SVG Export Plug-In . SVG Version: 6.00 Build 0)  -->
<svg version="1.1" id="Layer_1" xmlns="http://www.w3.org/2000/svg" xmlns:xlink="http://www.w3.org/1999/xlink" x="0px" y="0px"
	 viewBox="0 0 14 14" style="enable-background:new 0 0 14 14;" xml:space="preserve">
<style type="text/css">
	.st0{fill:#FFFFFF;}
</style>
<g id="surface17325343">
	<path class="st0" d="M7,0.1C3.2,0.1,0.1,3.2,0.1,7s3.1,6.9,6.9,6.9s6.9-3.1,6.9-6.9S10.8,0.1,7,0.1z M7,1.2c1.5,0,2.8,0.6,3.8,1.4
		c-0.1,0.2-0.3,0.3-0.5,0.6C9.8,3.7,9,4.3,7.8,4.7C7,3.2,6.2,2.1,5.7,1.4C6.1,1.3,6.6,1.2,7,1.2z M4.6,1.8C5,2.4,5.9,3.5,6.7,5.1
		C4.4,5.7,2.2,5.8,1.4,5.8C1.7,4,2.9,2.5,4.6,1.8z M11.6,3.5c0.7,0.9,1.1,2.1,1.2,3.3c-0.5-0.1-1.3-0.2-2.3-0.2
		c-0.5,0-1.1,0-1.7,0.1c-0.1-0.3-0.3-0.6-0.5-1c1.3-0.5,2.2-1.2,2.8-1.7C11.3,3.9,11.5,3.7,11.6,3.5z M7.2,6.1
		c0.1,0.3,0.3,0.5,0.4,0.8c-2.5,0.7-4.2,2.8-5,3.8C1.8,9.8,1.2,8.4,1.2,7c0,0,0,0,0-0.1C2,6.9,4.5,6.9,7.2,6.1z M10.5,7.8
		c1,0,1.7,0.1,2.2,0.3c-0.3,1.5-1.1,2.9-2.4,3.7C10.1,10.3,9.7,9,9.3,7.8C9.7,7.8,10.1,7.8,10.5,7.8z M8.1,8c0.5,1.3,1,2.8,1.2,4.3
		c-0.7,0.3-1.5,0.5-2.3,0.5c-1.3,0-2.5-0.4-3.5-1.2C4.1,10.8,5.8,8.6,8.1,8z"/>
</g>
</svg>
