<svg width="14" height="14" viewBox="0 0 14 14" fill="none" xmlns="http://www.w3.org/2000/svg">
<path d="M7 0C5.09833 0 4.86092 0.00875 4.11425 0.042C3.36875 0.077 2.86125 0.19425 2.415 0.3675C1.95475 0.546 1.56392 0.78575 1.17483 1.17483C0.78575 1.56392 0.545417 1.95417 0.3675 2.415C0.19425 2.86125 0.0764167 3.36875 0.042 4.11425C0.007 4.86092 0 5.09833 0 7C0 8.90167 0.00875 9.13908 0.042 9.88575C0.077 10.6307 0.19425 11.1388 0.3675 11.585C0.546 12.0447 0.78575 12.4361 1.17483 12.8252C1.56392 13.2137 1.95417 13.4546 2.415 13.6325C2.86183 13.8052 3.36933 13.9236 4.11425 13.958C4.86092 13.993 5.09833 14 7 14C8.90167 14 9.13908 13.9912 9.88575 13.958C10.6307 13.923 11.1388 13.8052 11.585 13.6325C12.0447 13.454 12.4361 13.2137 12.8252 12.8252C13.2137 12.4361 13.4546 12.0464 13.6325 11.585C13.8052 11.1388 13.9236 10.6307 13.958 9.88575C13.993 9.13908 14 8.90167 14 7C14 5.09833 13.9912 4.86092 13.958 4.11425C13.923 3.36933 13.8052 2.86067 13.6325 2.415C13.454 1.95475 13.2137 1.56392 12.8252 1.17483C12.4361 0.78575 12.0464 0.545417 11.585 0.3675C11.1388 0.19425 10.6307 0.0764167 9.88575 0.042C9.13908 0.007 8.90167 0 7 0ZM7 1.26C8.86842 1.26 9.09125 1.26933 9.82917 1.30142C10.5117 1.3335 10.8821 1.44667 11.1282 1.5435C11.4561 1.67008 11.6882 1.82175 11.9344 2.06617C12.1788 2.31117 12.3305 2.54392 12.4571 2.87175C12.5527 3.11792 12.6671 3.48833 12.698 4.17083C12.7312 4.90933 12.7388 5.131 12.7388 7C12.7388 8.869 12.7301 9.09125 12.6957 9.82917C12.6601 10.5117 12.5463 10.8821 12.4501 11.1282C12.3194 11.4561 12.1707 11.6882 11.9257 11.9344C11.6812 12.1788 11.445 12.3305 11.1207 12.4571C10.8757 12.5527 10.4994 12.6671 9.81692 12.698C9.07375 12.7312 8.855 12.7388 6.9825 12.7388C5.10942 12.7388 4.89067 12.7301 4.14808 12.6957C3.465 12.6601 3.08875 12.5463 2.84375 12.4501C2.51183 12.3194 2.28375 12.1707 2.03933 11.9257C1.79375 11.6812 1.63683 11.445 1.51433 11.1207C1.41808 10.8757 1.30492 10.4994 1.26933 9.81692C1.24308 9.08192 1.23375 8.855 1.23375 6.99125C1.23375 5.12692 1.24308 4.89942 1.26933 4.15567C1.30492 3.47317 1.41808 3.0975 1.51433 2.8525C1.63683 2.52 1.79375 2.2925 2.03933 2.04692C2.28375 1.8025 2.51183 1.645 2.84375 1.52308C3.08875 1.42625 3.45683 1.3125 4.13933 1.2775C4.88308 1.25125 5.10183 1.2425 6.97375 1.2425L7 1.26ZM7 3.4055C5.01375 3.4055 3.4055 5.0155 3.4055 7C3.4055 8.98625 5.0155 10.5945 7 10.5945C8.98625 10.5945 10.5945 8.9845 10.5945 7C10.5945 5.01375 8.9845 3.4055 7 3.4055ZM7 9.33333C5.71083 9.33333 4.66667 8.28917 4.66667 7C4.66667 5.71083 5.71083 4.66667 7 4.66667C8.28917 4.66667 9.33333 5.71083 9.33333 7C9.33333 8.28917 8.28917 9.33333 7 9.33333ZM11.5768 3.26375C11.5768 3.7275 11.2 4.10375 10.7368 4.10375C10.2731 4.10375 9.89683 3.72692 9.89683 3.26375C9.89683 2.80058 10.2737 2.42433 10.7368 2.42433C11.1994 2.42375 11.5768 2.80058 11.5768 3.26375Z" fill="white"/>
</svg>
